<svg xmlns="http://www.w3.org/2000/svg" xml:space="preserve" viewBox="0 0 1920 1080" enable-background="new 0 0 1920 1080" id="officeworkplace">
  <g id="Background" fill="#000000" class="color000000 svgShape">
    <circle cx="906.5" cy="525.5" r="460.8" opacity=".1" fill="#2abdf4" class="color2a94f4 svgShape"></circle>
    <ellipse cx="920.8" cy="993.3" rx="452.5" ry="44.1" opacity=".1" fill="#2abdf4" class="color2a94f4 svgShape"></ellipse>
  </g>
  <g id="Objects" fill="#000000" class="color000000 svgShape">
    <path d="M1172.3 628.2h-114.1c-37.5 0-67.9-30.4-67.9-67.9V447.4c0-37.5 30.4-67.9 67.9-67.9h114.1c37.5 0 67.9 30.4 67.9 67.9v112.9c0 37.5-30.4 67.9-67.9 67.9z" fill="#0e8c65" class="color0e538c svgShape"></path>
    <path d="M996.6 352.3c1.2-1.2 2.3-2.4 3.4-3.8 8.1-10.3 9.2-19.5 16.7-31.4 1.1-1.7 2.6-6.3 5.4-10.4 3-4.3 10.2-9 12.1-9.9 3.5-1.8 3.5 1.6 6.3 1.9 1.1.1 1.3 6.7 1.3 7.8.1 9-2 18-6.1 26-1 1.9-2.1 3.8-2.1 5.9 2.7-.1 4.9-1.9 7-3.5 2.1-1.6 4.8-3 7.4-2.1-.4 1.1-.9 2.1-1.4 3.1-3.2 6-6.8 12.3-12.9 15.2-3.7 1.7-7.9 2-11.5 3.9-6.5 3.4-9.6 11.4-16.1 14.6" fill="#fcddb1" class="colorfcd2b1 svgShape"></path>
    <path d="m1037.5 355.7-24.5-10.3c-.3-.1-.5-.5-.3-.8l19.3-46.1c.1-.3.5-.5.8-.3l24.5 10.3c.3.1.5.5.3.8l-19.3 46.1c-.1.3-.5.5-.8.3z" fill="#ffbf66" class="colorffbe55 svgShape"></path>
    <path d="M1024.2 304.3h23.4v45.8h-23.4z" transform="rotate(22.698 1035.781 327.205)" fill="#87ddfd" class="colorcce9ff svgShape"></path>
    <path d="M1055.5 394s-16.5.8-31.1 5.3c-22.2 6.7-29.8 16.9-37.4 21.2 14.9-18.9 31.4-58.9 31.4-58.9s-20-16.4-22.3-12.5c-2.3 3.9-86.2 102.1-83.6 118 1.1 6.6 10.8 13 19.4 12.7 23.8-.8 51.4-9.5 80.4-18.9 12.7-4.2 16.7 4.8 16.7 4.8" fill="#87ddfd" class="colorcce9ff svgShape"></path>
    <path d="M986.9 420.4s-10.6 21.3-13.7 22.7c-3.2 1.4 7.7-4.4 13.7-10.6 5.9-6.1 14.1-22.3 14.1-22.3-3.2 1.3-14.1 10.2-14.1 10.2z" fill="#87ddfd" class="colorcce9ff svgShape"></path>
    <path d="M1020 317.2c1 .7 1.3 2.1 1.5 3.4.7 4.7 1.4 9.7-.4 14.1-1.2 2.9-3.4 5.2-5.7 7.2-2.6 2.3-5.5 4.3-8.6 5.9" fill="#fcddb1" class="colorfcd2b1 svgShape"></path>
    <path d="M1056 281.8c-5.6 1.6-8.6 8.9-10.5 13.8-2.3 6-3.4 12.3-4.2 18.6-.5 4.4-.8 9 .9 13.1.9 2.1 2.3 3.9 3.7 5.7.8 1 1.6 2.1 2.6 2.8 1.1.7 2.4 1.1 3.6.6 1.7-.7 2.4-2.7 2.9-4.5 3.2-11.8 6.8-23.7 13.4-33.9" fill="#0e8c65" class="color0e538c svgShape"></path>
    <path d="M1012.3 413.4c6.9-7.9 28.9-21 58.2-20.1 20.2.6 75.3 4 81.4 17.5 3.1 6.9 6.5 77.7 1.9 102.1-3.5 18.4-12.3 63.8-12.3 74.8s5.9 15.7 3.1 18.9c-6.2 7.1-48.3 10.1-68.1 10.1-17.6 0-47.6-4.7-49.1-10.3-2.3-8.4 3.4-8.1 4.2-16.8.8-8.8 3-65.7-.2-75.1-5.8-16.8-8.7-44.3-13.3-56.7-3.4-9.5-12.7-36.5-5.8-44.4z" fill="#87ddfd" class="colorcce9ff svgShape"></path>
    <path d="M1054.5 367.9s-.2 23-1.1 24c-.9.9-5.5 3.1-5.5 3.1s3.2 20 8.3 18.5c5-1.5 38.1-18.2 38.1-18.2s-4.7-1.9-4.7-3.8 4.5-38.1 4.5-38.1" fill="#fcddb1" class="colorfcd2b1 svgShape"></path>
    <path d="M1077.5 284.3c-4.8 1.3-17.5-1.3-21.1 3.9-3.5 5.3-6.6 18-7.9 21.5-2.6 7-4.3 14.5-6.2 21.7-2.5 9.4-6.6 26.6 2.6 34.4 2.6 2.3 3.8 3 7.1 3.6 4.3.8 8.7 1.7 13 2.5 6.7 1.2 14.2 2.6 20.9.4 8.9-2.9 13.8-15.2 16.1-23.5l13.2-47.8-37.7-16.7z" fill="#ffe9ca" class="colorffe3ca svgShape"></path>
    <path d="M1053.7 422.5s-1.9 89.9-5.6 144.5l13.2 18.2 9.1-22.8s3.8-65.9-8.6-139.3l-8.1-.6zM1050.7 414.6l.3 1.2c.6 2.3 1.5 4.6 2.7 6.7l8.1.6s5.5-2.9 6.2-6c.7-3.1-9-8.2-9-8.2l-1.2.5c-2.7 1.1-5.2 2.8-7.1 5.1v.1z" fill="#ffbf66" class="colorffbe55 svgShape"></path>
    <path d="M1090.2 385.9s5.2 3.2 9.2 9.4c-4.2 9.5-13.6 26.5-24 34.2-4.9-13-16.5-20.6-16.5-20.6s28.4-5 31.3-23z" fill="#f7f7f7" class="colorf7f7f7 svgShape"></path>
    <path d="M1059 408.9s-10.1 4-16.1 15.3c0 0-1.9-15.3 2.2-28.4 0 0 6.6-8.5 8.9-8.7-.9 10.9 5 21.8 5 21.8z" fill="#f7f7f7" class="colorf7f7f7 svgShape"></path>
    <path d="M1017.4 542.8c-8.7-5.2-13.9-4.7-21.9-4-.6.1-1.4.2-1.7.8-.4.7.1 1.6.6 2.2 3.1 3.5 5.6 1.7 10.1 3.1 3.1.9 6.1 1.8 9.2 2.7" fill="#efd0a5" class="colorefaca5 svgShape"></path>
    <path d="m1007.5 457.9 7.8 119.2c.2 3.2-2.1 5.4-5 4.7l-73.7-11.1c-2.6-.6-4.7-3.3-4.9-6.1l-10.8-118.2c-.2-3.2 5.1-6.4 8-5.7l73.7 11.1c2.6.6 4.7 3.3 4.9 6.1z" fill="#238365" class="color0b4870 svgShape"></path>
    <path d="m1004.4 460.2 7.7 117.4c.2 3.2-2.1 5.4-5 4.7l-73.7-11.1c-2.6-.6-4.7-3.3-4.9-6.1l-7.7-117.4c-.2-3.2 2.1-5.4 5-4.7l73.7 11.1c2.6.6 4.7 3.3 4.9 6.1z" fill="#0e8c65" class="color0e538c svgShape"></path>
    <path d="m947.6 442.7.3 10.2 34.4 5.2-.4-10.2z" fill="#ffbf66" class="colorffbe55 svgShape"></path>
    <path d="M956.2 435.4c.2 2.4.8 11.6.8 11.6l16.5 2.4-.8-11.6c-.3-5-4.3-9.6-8.8-10.3-4.6-.6-8.1 2.9-7.7 7.9zm3.6.6c-.2-2.8 1.7-4.8 4.3-4.4 2.6.4 4.8 3 5 5.8.2 2.8-1.7 4.8-4.3 4.4-2.6-.4-4.8-2.9-5-5.8z" fill="#ffbf66" class="colorffbe55 svgShape"></path>
    <path d="M1044.3 554.6c-7-3.7-27-12.2-29.3-12.7-2.8-.7-13.6-1.2-16.4-.9-11 1.1-10.3 6.4-19.4 12.7-.5.3-.9.7-1.2 1.2-.7.9 5.7 7 8.4 7.5 1.4.3 1.2.2 5.2 0 2.9-.1 5.7.3 9.8 1.4 2.7.7 5.9 2 8.8 2.3 3.8.4 8.4 3.6 16.3-1.6 1.7-1.1 4-.8 6.1-.6 5 .6 9.9 1.3 14.9 1.9" fill="#ffe9ca" class="colorffe3ca svgShape"></path>
    <path d="M1127.1 453.5c-.1 12.2-9.6 94.5-9.6 94.5l-84.4 1.4-2 16.3s95.5 28.6 108.4 10.2c12.9-18.4 39.3-110.7 23.9-150.2-4.3-11.1-12.9-17.9-19.6-21.5" fill="#87ddfd" class="colorcce9ff svgShape"></path>
    <path d="M1107.1 340.5c-3-1.8-5.4-3.6-7.3-.7-1 1.5-1.7 3.7-3.5 4.2s-3.6-1.1-4.1-2.9c-.4-1.8.1-3.7.7-5.5 1.2-3.9 2.4-7.8 3.7-11.8 1.2-3.8 2.4-8.1.9-11.8-.8-1.9-2.2-3.4-3.7-4.8-5-4.3-11.6-6.4-18.1-7.7-6.5-1.3-13.1-2-19.4-4-2.7-.8-5.3-1.9-7.4-3.7-3.4-2.9-5.2-7.5-5.2-12s1.5-8.9 3.8-12.8c.5 1.5 1.1 3 1.9 4.4.8-2.1 2-4 3.5-5.6 1.9 10.5 46.2 7 56.6 11.7 7.2 3.2 13.1 5.3 12.9 17 .2.8.8 1.3 1.4 1.9 6.4 5.8 9.1 13 9.9 23.5 1 12.9-6.5 26.9-13.9 37.6-1.9 2.7-2.9 4.6-5.5 6.5-2.6 2-7.1 2.9-10.3 2.3-3.2-.6-9.5-.3-9.6-3.6 0-2.3 4.9-6.5 6.3-8.4" fill="#0e8c65" class="color0e538c svgShape"></path>
    <path d="M1095.4 352.7s-.5 2.2.8 3.9c1.2 1.5 3.6 1.3 5.2.7 4.7-1.5 8-6.1 8.8-10.9 1-5.6-2-11.2-7.1-9.7-3 .9-4.9 4.2-4.8 7.4" fill="#ffe9ca" class="colorffe3ca svgShape"></path>
    <path d="m1184.5 629.2 9.9-59.4c7.7-46.3 7.4-94-1-140.2l-8.9-49.1c30.7 0 55.7 29.4 55.7 65.7v117.3c0 36.3-25 65.7-55.7 65.7z" fill="#238365" class="color0b4870 svgShape"></path>
    <path d="M880.7 514.8H619c-5.7 0-10.3-4.6-10.3-10.3V368.7c0-5.7 4.6-10.3 10.3-10.3h261.7c5.7 0 10.3 4.6 10.3 10.3v135.8c0 5.7-4.6 10.3-10.3 10.3z" fill="#ffbf66" class="colorffbe55 svgShape"></path>
    <path d="M734.7 480.3H765v73.6h-30.3zM820.3 577.4h-141c0-12.9 10.5-23.4 23.4-23.4h94.1c13 0 23.5 10.5 23.5 23.4z" fill="#ffbf66" class="colorffbe55 svgShape"></path>
    <path d="M734.7 480.3H765v73.6h-30.3z" opacity="8.000000e-02" fill="#0b3d2e" class="color070707 svgShape"></path>
    <path d="M622.3 577.4h-48.5c0-11.3 9.1-20.4 20.4-20.4h7.7c11.3 0 20.4 9.1 20.4 20.4z" fill="#ffbf66" class="colorffbe55 svgShape"></path>
    <path d="M492.8 589.1h827.6v404.2H492.8z" fill="#238365" class="color0b4870 svgShape"></path>
    <path d="M474.3 577.4h864.5v37.7H474.3z" fill="#0e8c65" class="color0e538c svgShape"></path>
  </g>
</svg>
