<svg id="visual" viewBox="0 0 900 600" width="900" height="400" xmlns="http://www.w3.org/2000/svg" xmlns:xlink="http://www.w3.org/1999/xlink" version="1.1"><rect x="0" y="0" width="900" height="600" fill="#a2c9bc"></rect><path d="M0 554L25 541.5C50 529 100 504 150 503C200 502 250 525 300 536.5C350 548 400 548 450 539.3C500 530.7 550 513.3 600 499.5C650 485.7 700 475.3 750 471.2C800 467 850 469 875 470L900 471L900 601L875 601C850 601 800 601 750 601C700 601 650 601 600 601C550 601 500 601 450 601C400 601 350 601 300 601C250 601 200 601 150 601C100 601 50 601 25 601L0 601Z" fill="#0b3d2e" stroke-linecap="round" stroke-linejoin="miter"></path></svg>