<svg id="visual" viewBox="0 0 1600 200" width="1600" height="200" xmlns="http://www.w3.org/2000/svg" xmlns:xlink="http://www.w3.org/1999/xlink" version="1.1"><rect x="0" y="0" width="1600" height="200" fill="#a2c9bc"></rect><path d="M0 164L44.5 154.2C89 144.3 178 124.7 266.8 123.8C355.7 123 444.3 141 533.2 150C622 159 711 159 800 152.3C889 145.7 978 132.3 1066.8 121.7C1155.7 111 1244.3 103 1333.2 99.8C1422 96.7 1511 98.3 1555.5 99.2L1600 100L1600 201L1555.5 201C1511 201 1422 201 1333.2 201C1244.3 201 1155.7 201 1066.8 201C978 201 889 201 800 201C711 201 622 201 533.2 201C444.3 201 355.7 201 266.8 201C178 201 89 201 44.5 201L0 201Z" fill="#0b3d2e" stroke-linecap="round" stroke-linejoin="miter"></path></svg>